#File generated from solving marker data for model walk1.trc
name solved_motion
datacolumns 107
datarows 7
range 0.5000000000 0.5500000000
units unknown
enforce_loops no
enforce_constraints no
endheader

time	lower_torso_TX	lower_torso_TY	lower_torso_TZ	lower_torso_RX	lower_torso_RY	lower_torso_RZ	lumbar_roll	lumbar_yaw	lumbar_pitch	neck_roll	neck_yaw	neck_pitch	arm_add_r	arm_rot_r	arm_flex_r	elbow_flex_r	pro_sup_r	wrist_dev_r	wrist_flex_r	arm_add_l	arm_rot_l	arm_flex_l	elbow_flex_l	pro_sup_l	wrist_dev_l	wrist_flex_l	hip_add_r	hip_rot_r	hip_flex_r	ankle_flex_r	subt_angle_r	toe_angle_r	hip_add_l	hip_rot_l	hip_flex_l	knee_flex_l	ankle_flex_l	subt_angle_l	toe_angle_l	knee_flex_r	R.Shoulder_px	R.Shoulder_py	R.Shoulder_pz	R.Scapula_px	R.Scapula_py	R.Scapula_pz	L.Shoulder_px	L.Shoulder_py	L.Shoulder_pz	R.ASIS_px	R.ASIS_py	R.ASIS_pz	V.Sacral_px	V.Sacral_py	V.Sacral_pz	L.ASIS_px	L.ASIS_py	L.ASIS_pz	R.Elbow_px	R.Elbow_py	R.Elbow_pz	R.Wrist_px	R.Wrist_py	R.Wrist_pz	L.Elbow_px	L.Elbow_py	L.Elbow_pz	L.Wrist_px	L.Wrist_py	L.Wrist_pz	R.Thigh_px	R.Thigh_py	R.Thigh_pz	R.Knee_px	R.Knee_py	R.Knee_pz	R.Shank_px	R.Shank_py	R.Shank_pz	R.Ankle_px	R.Ankle_py	R.Ankle_pz	R.Heel_px	R.Heel_py	R.Heel_pz	R.Toe_px	R.Toe_py	R.Toe_pz	L.Thigh_px	L.Thigh_py	L.Thigh_pz	L.Knee_px	L.Knee_py	L.Knee_pz	L.Shank_px	L.Shank_py	L.Shank_pz	L.Ankle_px	L.Ankle_py	L.Ankle_pz	L.Heel_px	L.Heel_py	L.Heel_pz	L.Toe_px	L.Toe_py	L.Toe_pz	
0.5000000000	-1.0313661000	0.2915156169	0.7191807192	88.5144803287	-2.5309565147	1.6284642789	5.1843494384	1.7041609277	-24.3762640606	0.0000000000	0.0000000000	0.0000000000	-42.5055184570	-10.0000000000	13.2604382707	39.1731948501	66.7015143397	0.0000000000	0.0000000000	-29.1959088566	10.0000000000	13.8613912846	46.6452116776	60.3893040894	0.0000000000	0.0000000000	5.5032899260	13.1049453115	43.8117303403	30.0000000000	8.2665648403	0.0000000000	-2.4915955979	16.4887527291	41.3890984322	108.6395141611	9.5333519439	16.6969656546	0.0000000000	94.0445383825	-0.9868759800	0.0401011700	1.1102242400	-1.1524768100	0.1830480200	1.1260617700	-1.0006666900	0.4921404100	1.1655865500	-1.0039503800	0.1489830200	0.7478431400	-1.2268704800	0.3047489600	0.7999198600	-0.9952354700	0.4272991900	0.7385031700	-1.0858869600	-0.1084260600	0.8979081400	-0.9009807700	-0.2189602400	0.7735671400	-1.0460786100	0.6363411300	0.9217026400	-0.8593225100	0.6576086400	0.7489990200	-0.9260047000	0.0739899600	0.4387201200	-0.8451998900	0.1617356400	0.3325671700	-0.9517620200	0.0622919200	0.1897589300	-1.1461945800	0.0860266500	0.0721788600	-1.2136135300	0.1062817100	0.0874151800	-1.0585058600	0.1548126200	0.0427132800	-0.8809974400	0.5137044700	0.4032205500	-0.8507504900	0.4353157000	0.3367280600	-1.0730760500	0.5784736300	0.2141965900	-1.2095631100	0.5446405000	0.1677209200	-1.2721854200	0.5226048600	0.2152487300	-1.1729890100	0.4871969900	0.0748783400	
0.5080000000	-1.0259976716	0.2901169737	0.7200891847	88.1331318979	-2.8760122286	1.7403316032	5.4339984330	2.3862954841	-24.7264355291	0.0000000000	0.0000000000	0.0000000000	-42.5288762990	-10.0000000000	13.6658777819	42.6996701493	50.0040770710	0.0000000000	0.0000000000	-28.9803476610	10.0000000000	14.5411909866	42.4291411590	70.0000000000	0.0000000000	0.0000000000	6.1164991494	12.8464972620	43.3036827115	30.0000000000	9.1933795831	0.0000000000	-3.1945207826	16.3538841873	42.3241293371	108.7733660783	9.5831974257	18.2467213154	-0.0010000000	93.9191903721	-0.9813082300	0.0370079900	1.1122902800	-1.1456068100	0.1812245300	1.1266695600	-0.9927771000	0.4928605000	1.1671038800	-0.9992966300	0.1473634900	0.7486327500	-1.2210227100	0.3051713600	0.8006163300	-0.9887586700	0.4265260000	0.7398976400	-1.0768648700	-0.1108955700	0.8984080800	-0.8895051900	-0.2189290600	0.7751455100	-1.0410202600	0.6354416500	0.9225589600	-0.8570993700	0.6598103000	0.7453151200	-0.9211926900	0.0752640500	0.4372915000	-0.8432856400	0.1605752600	0.3306687300	-0.9503424100	0.0626247400	0.1896517500	-1.1433819600	0.0883128900	0.0717860000	-1.2108803700	0.1072973900	0.0875473100	-1.0585058600	0.1548126200	0.0427132800	-0.8722966900	0.5121021700	0.4060650600	-0.8416228000	0.4341706500	0.3405300000	-1.0584843800	0.5753581500	0.2160711700	-1.1991727300	0.5442450000	0.1687877500	-1.2585827600	0.5189240700	0.2118884400	-1.1559218800	0.4848756400	0.0744437700	
0.5170000000	-1.0194354697	0.2893960061	0.7202798386	88.1049966235	-3.1523955933	1.6078933410	5.3986344869	2.8671386242	-24.4477527474	0.0000000000	0.0000000000	0.0000000000	-42.9582033285	-10.0000000000	13.9542183876	42.8274567714	50.0007876308	0.0000000000	0.0000000000	-28.5006593501	10.0000000000	14.2651851121	41.4216033025	70.0000000000	0.0000000000	0.0000000000	6.0478693332	12.8644768758	42.8439221810	30.0000000000	9.6329223094	0.0000000000	-3.0503190759	16.1595000875	43.4666868502	108.6877661752	9.6678612049	18.1245107922	-0.0020000000	93.9513273524	-0.9737075800	0.0386534000	1.1107531700	-1.1396951900	0.1803716700	1.1272434100	-0.9903700600	0.4907271700	1.1692069100	-0.9931492300	0.1474494000	0.7485784900	-1.2149377400	0.3046028400	0.8009585600	-0.9813718900	0.4252959900	0.7397585400	-1.0677586700	-0.1125861200	0.8991557000	-0.8782573200	-0.2191711000	0.7777144800	-1.0369992700	0.6339545300	0.9245722000	-0.8569434800	0.6612699600	0.7435591400	-0.9181659500	0.0751812200	0.4357068800	-0.8425340600	0.1576071200	0.3285259400	-0.9520914900	0.0599732500	0.1891008800	-1.1432970000	0.0869833400	0.0728553800	-1.2109406700	0.1069945400	0.0894093900	-1.0585058600	0.1548126200	0.0427132800	-0.8592576300	0.5089156200	0.4103295900	-0.8304909100	0.4321211200	0.3443986200	-1.0421799300	0.5735886200	0.2158245400	-1.1845787400	0.5419838300	0.1668820300	-1.2430946000	0.5160139800	0.2076243300	-1.1385466300	0.4816755100	0.0735010400	
0.5250000000	-1.0127044995	0.2883934970	0.7203352323	87.9104878860	-3.4980753365	1.2808239831	5.4259289848	3.0131213650	-24.1880595111	0.0000000000	0.0000000000	0.0000000000	-43.1553100561	-10.0000000000	15.5008375301	41.4354406791	50.0007876308	0.0000000000	0.0000000000	-28.1920954774	10.0000000000	13.2535924816	41.0526608559	70.0000000000	0.0000000000	0.0000000000	6.4067161203	12.8528428862	42.6242863765	30.0000000000	9.4020380090	0.0000000000	-3.2951642012	15.7665886112	44.9676928755	108.5884765432	10.1370082085	16.5613239367	-0.0030000000	94.0639106406	-0.9695289300	0.0354854000	1.1128252000	-1.1328404500	0.1803189500	1.1276444100	-0.9806983000	0.4905372300	1.1681179200	-0.9875397900	0.1467591100	0.7485236200	-1.2087043500	0.3047776800	0.8018480800	-0.9731561900	0.4247198500	0.7392388300	-1.0544482400	-0.1128332800	0.8987150300	-0.8671798700	-0.2191343500	0.7807289400	-1.0325992400	0.6336256100	0.9252238800	-0.8578451500	0.6618353300	0.7406632100	-0.9153247100	0.0742663300	0.4342941300	-0.8407459700	0.1568043100	0.3282472800	-0.9480918000	0.0603621200	0.1880617100	-1.1421131600	0.0876801100	0.0742928600	-1.2139986600	0.1072982700	0.0923059000	-1.0582121600	0.1545947400	0.0429037900	-0.8496249400	0.5080952800	0.4137641300	-0.8150689100	0.4295543800	0.3489784500	-1.0299522700	0.5700532800	0.2189568800	-1.1669627700	0.5369335900	0.1624706400	-1.2292891800	0.5129005100	0.2048120600	-1.1184729000	0.4788029500	0.0721886900	
0.5330000000	-1.0069401677	0.2875555130	0.7211845002	87.9935992109	-3.9359603496	1.3035897290	5.3023714536	3.3310469207	-24.3327006232	0.0000000000	0.0000000000	0.0000000000	-43.6582709576	-10.0000000000	16.3492811014	41.4141245102	50.0007876308	0.0000000000	0.0000000000	-28.3833882638	10.0000000000	12.9609625303	39.4436111065	70.0000000000	0.0000000000	0.0000000000	6.4727192651	13.0886686241	42.1694344583	30.0000000000	9.5858989879	0.0000000000	-2.8416839575	15.6478446677	45.7653924891	108.3489793803	10.8876935856	18.5273438118	-0.0040000000	94.1362500351	-0.9647327900	0.0322054300	1.1142031300	-1.1264683800	0.1794578100	1.1284228500	-0.9725576800	0.4888408500	1.1679836400	-0.9834789400	0.1463158000	0.7494415300	-1.2032396200	0.3052301900	0.8030082400	-0.9656876800	0.4243938000	0.7400191700	-1.0452369400	-0.1138792900	0.8988526000	-0.8551577100	-0.2201183000	0.7832323000	-1.0280155000	0.6332645300	0.9264658800	-0.8571063800	0.6686654100	0.7402740500	-0.9129016700	0.0734863000	0.4335726000	-0.8387934600	0.1552758800	0.3266468200	-0.9450269800	0.0597572600	0.1865417600	-1.1419060100	0.0882589600	0.0760227300	-1.2140969200	0.1070858900	0.0941903300	-1.0568765900	0.1546163800	0.0434460300	-0.8385852100	0.5044044200	0.4185540500	-0.8034851100	0.4237247300	0.3527291900	-1.0149470800	0.5679090000	0.2190798000	-1.1502094700	0.5335394900	0.1591277500	-1.2145813000	0.5130755000	0.2004977000	-1.1022479200	0.4735065000	0.0732198200	
0.5420000000	-1.0019606674	0.2862240890	0.7218070230	88.2766278737	-4.2407044982	1.2755578990	4.7393897791	3.6203825289	-24.4011853908	0.0000000000	0.0000000000	0.0000000000	-43.7240574978	-10.0000000000	17.1735749818	41.2491818645	50.0007876308	0.0000000000	0.0000000000	-28.4083756639	10.0000000000	12.9719078665	38.4704260443	70.0000000000	0.0000000000	0.0000000000	6.4411999667	13.3429532456	41.9580266360	30.0000000000	9.3534968134	0.0000000000	-2.4211972443	15.3149018847	46.8750115032	108.0498650296	10.9512024733	17.8263451175	-0.0050000000	94.3995868139	-0.9591791400	0.0326224900	1.1160607900	-1.1201251200	0.1792441600	1.1295930200	-0.9679423800	0.4894342700	1.1680662800	-0.9789145500	0.1449595800	0.7499000200	-1.1972872300	0.3066068700	0.8034245000	-0.9607686200	0.4223197900	0.7409230300	-1.0348372800	-0.1151561400	0.8987611100	-0.8433165900	-0.2183541900	0.7856326300	-1.0241201200	0.6326113900	0.9280307000	-0.8551480100	0.6717138700	0.7373310500	-0.9099526400	0.0726792500	0.4319033800	-0.8326947600	0.1557645400	0.3245829800	-0.9457666600	0.0592973600	0.1871282200	-1.1395040300	0.0894418700	0.0767883000	-1.2138143300	0.1076396900	0.0977226200	-1.0560896000	0.1546050700	0.0437578200	-0.8288400300	0.5014488800	0.4227160900	-0.7982379200	0.4203561100	0.3602973300	-0.9993005400	0.5631156000	0.2202298600	-1.1331536900	0.5312734400	0.1565605200	-1.1993161600	0.5102654100	0.1971819800	-1.0837918700	0.4710952500	0.0725809200	
0.5500000000	-0.9956639316	0.2857198382	0.7229791140	88.2655552271	-4.8765212522	1.5162166923	4.4781091255	4.5070233033	-24.7611682233	0.0000000000	0.0000000000	0.0000000000	-44.2417634346	-10.0000000000	17.3059041603	41.2932734851	50.0007876308	0.0000000000	0.0000000000	-28.1113846345	10.0000000000	12.3690797331	38.2525812935	70.0000000000	0.0000000000	0.0000000000	6.6911462741	13.7597327139	41.0593290106	30.0000000000	9.6441052384	0.0000000000	-2.4603314296	14.8251151233	47.6397688122	107.7310196756	11.0171672676	16.5551629319	-0.0060000000	94.0828825653	-0.9508318500	0.0333866700	1.1167204600	-1.1140745800	0.1786528800	1.1295916700	-0.9620286900	0.4895355200	1.1695510300	-0.9746850600	0.1440080900	0.7509682000	-1.1903499800	0.3073824800	0.8041335400	-0.9531671800	0.4221017500	0.7424494600	-1.0254152800	-0.1163591800	0.8995438800	-0.8326035800	-0.2179518300	0.7873868400	-1.0217554300	0.6339200400	0.9290914900	-0.8565231300	0.6739273100	0.7362324800	-0.9068557100	0.0735317400	0.4310170900	-0.8335213000	0.1539238600	0.3229826700	-0.9430557900	0.0591192700	0.1857305000	-1.1397174100	0.0898544500	0.0770484800	-1.2098774400	0.1082106300	0.0963596400	-1.0564163800	0.1544341300	0.0438600700	-0.8144841900	0.4979139100	0.4267816800	-0.7832318100	0.4187159100	0.3656840500	-0.9826501500	0.5625751300	0.2204074600	-1.1150990000	0.5279134500	0.1534350000	-1.1833619400	0.5076844800	0.1925547900	-1.0643781700	0.4678395100	0.0713803100	
